<?xml version="1.0" encoding="UTF-8"?>
<svg width="192" height="192" viewBox="0 0 192 192" fill="none" xmlns="http://www.w3.org/2000/svg">
  <rect width="192" height="192" rx="48" fill="#2563EB"/>
  <path d="M96 38.4C64.1885 38.4 38.4 64.1885 38.4 96C38.4 127.812 64.1885 153.6 96 153.6C127.812 153.6 153.6 127.812 153.6 96C153.6 64.1885 127.812 38.4 96 38.4ZM96 57.6C117.208 57.6 134.4 74.7923 134.4 96C134.4 117.208 117.208 134.4 96 134.4C74.7923 134.4 57.6 117.208 57.6 96C57.6 74.7923 74.7923 57.6 96 57.6Z" fill="white"/>
  <path d="M96 76.8C85.3963 76.8 76.8 85.3963 76.8 96C76.8 106.604 85.3963 115.2 96 115.2C106.604 115.2 115.2 106.604 115.2 96C115.2 85.3963 106.604 76.8 96 76.8Z" fill="white"/>
</svg> 