<?xml version="1.0" encoding="UTF-8"?>
<svg width="512" height="512" viewBox="0 0 512 512" fill="none" xmlns="http://www.w3.org/2000/svg">
  <rect width="512" height="512" rx="128" fill="#2563EB"/>
  <path d="M256 102.4C171.17 102.4 102.4 171.17 102.4 256C102.4 340.83 171.17 409.6 256 409.6C340.83 409.6 409.6 340.83 409.6 256C409.6 171.17 340.83 102.4 256 102.4ZM256 153.6C312.555 153.6 358.4 199.445 358.4 256C358.4 312.555 312.555 358.4 256 358.4C199.445 358.4 153.6 312.555 153.6 256C153.6 199.445 199.445 153.6 256 153.6Z" fill="white"/>
  <path d="M256 204.8C227.724 204.8 204.8 227.724 204.8 256C204.8 284.276 227.724 307.2 256 307.2C284.276 307.2 307.2 284.276 307.2 256C307.2 227.724 284.276 204.8 256 204.8Z" fill="white"/>
</svg> 