<svg width="512" height="512" viewBox="0 0 512 512" fill="none" xmlns="http://www.w3.org/2000/svg">
  <rect width="512" height="512" rx="128" fill="#2563EB"/>
  <path d="M256 96C165.888 96 96 165.888 96 256C96 346.112 165.888 416 256 416C346.112 416 416 346.112 416 256C416 165.888 346.112 96 256 96ZM256 160C314.112 160 352 197.888 352 256C352 314.112 314.112 352 256 352C197.888 352 160 314.112 160 256C160 197.888 197.888 160 256 160Z" fill="white"/>
  <path d="M256 208C229.49 208 208 229.49 208 256C208 282.51 229.49 304 256 304C282.51 304 304 282.51 304 256C304 229.49 282.51 208 256 208Z" fill="white"/>
</svg> 